<svg width="64" height="34" viewBox="0 0 64 34" fill="none" xmlns="http://www.w3.org/2000/svg">
<path d="M18.0992 22.5384H20.9024V33.6534H18.0992V22.5384ZM43.5328 25.7232C43.4176 25.6593 42.5088 25.1348 41.1776 25.1348C39.36 25.1348 38.1056 26.4011 38.1056 28.1023C38.1056 29.7523 39.3088 31.0697 41.1776 31.0697C42.496 31.0697 43.4176 30.5453 43.5328 30.4813V33.4615C43.1744 33.5639 42.2272 33.8581 40.9728 33.8581C37.8112 33.8581 35.0464 31.6836 35.0464 28.1023C35.0464 24.7895 37.5552 22.3465 40.9728 22.3465C42.2912 22.3465 43.264 22.6663 43.5328 22.743V25.7232ZM14.2464 25.7232C14.1312 25.6593 13.2352 25.1348 11.8912 25.1348C10.0736 25.1348 8.8192 26.4011 8.8192 28.1023C8.8192 29.7523 10.0224 31.0697 11.8912 31.0697C13.2096 31.0697 14.1312 30.5453 14.2464 30.4813V33.4615C13.9008 33.5639 12.9408 33.8581 11.6864 33.8581C8.5376 33.8581 5.76 31.6836 5.76 28.1023C5.76 24.7895 8.2688 22.3465 11.6864 22.3465C13.0048 22.3465 13.9776 22.6663 14.2464 22.743V25.7232ZM58.24 28.0895C58.24 31.2743 55.7824 33.8453 52.3648 33.8453C48.9472 33.8453 46.4896 31.2743 46.4896 28.0895C46.4896 24.9174 48.9472 22.3337 52.3648 22.3337C55.7824 22.3465 58.24 24.9174 58.24 28.0895ZM52.3648 25.1732C50.7008 25.1732 49.4592 26.4779 49.4592 28.0895C49.4592 29.7011 50.7008 31.0185 52.3648 31.0185C54.0288 31.0185 55.2704 29.7139 55.2704 28.0895C55.2704 26.4779 54.0288 25.1732 52.3648 25.1732ZM31.552 25.0709C31.5136 25.0581 30.3232 24.7255 29.3632 24.7255C28.2368 24.7255 27.6224 25.0965 27.6224 25.6337C27.6224 26.3116 28.4416 26.5418 28.9152 26.6953L29.6832 26.9383C31.5008 27.5139 32.3328 28.7674 32.3328 30.1232C32.3328 32.9115 29.8752 33.8581 27.7248 33.8581C26.2272 33.8581 24.832 33.5895 24.6912 33.5511V30.993C24.9344 31.0569 26.112 31.4023 27.3408 31.4023C28.736 31.4023 29.376 30.993 29.376 30.3662C29.376 29.8034 28.8256 29.4837 28.1216 29.2534C27.9552 29.2023 27.6992 29.1127 27.52 29.0616C25.9584 28.5627 24.6528 27.6546 24.6528 25.8128C24.6528 23.7407 26.2144 22.3337 28.8 22.3337C30.1696 22.3337 31.4496 22.6663 31.5392 22.6918V25.0709H31.552ZM2.7904 10.5919C2.7904 9.82447 2.1632 9.21052 1.3952 9.21052C0.6272 9.21052 0 9.82447 0 10.5919V13.5082C0 14.2756 0.6272 14.9023 1.3952 14.9023C2.1632 14.9023 2.7904 14.2756 2.7904 13.5082V10.5919ZM10.4448 6.76751C10.4448 6.00007 9.8176 5.37333 9.0496 5.37333C8.2816 5.37333 7.6544 6.00007 7.6544 6.76751V13.5082C7.6544 14.2756 8.2816 14.9023 9.0496 14.9023C9.8176 14.9023 10.4448 14.2756 10.4448 13.5082V6.76751ZM18.0864 1.52336C18.0864 0.755918 17.4592 0.141968 16.6912 0.141968C15.9232 0.141968 15.296 0.768708 15.296 1.52336V16.2837C15.296 17.0512 15.9232 17.6779 16.6912 17.6779C17.4592 17.6779 18.0864 17.0512 18.0864 16.2837V1.52336ZM25.7408 6.76751C25.7408 6.00007 25.1136 5.37333 24.3456 5.37333C23.5776 5.37333 22.9504 6.00007 22.9504 6.76751V13.5082C22.9504 14.2756 23.5776 14.9023 24.3456 14.9023C25.1136 14.9023 25.7408 14.2756 25.7408 13.5082V6.76751ZM33.3952 10.5919C33.3952 9.82447 32.768 9.21052 32.0128 9.21052C31.2448 9.21052 30.6176 9.83726 30.6176 10.5919V13.5082C30.6176 14.2756 31.2448 14.9023 32.0128 14.9023C32.7808 14.9023 33.3952 14.2756 33.3952 13.5082V10.5919ZM41.0496 6.76751C41.0496 6.00007 40.4224 5.37333 39.6544 5.37333C38.8864 5.37333 38.2592 6.00007 38.2592 6.76751V13.5082C38.2592 14.2756 38.8864 14.9023 39.6544 14.9023C40.4224 14.9023 41.0496 14.2756 41.0496 13.5082V6.76751ZM48.704 1.52336C48.704 0.755918 48.0768 0.141968 47.3088 0.141968C46.5408 0.141968 45.9136 0.768708 45.9136 1.52336V16.2837C45.9136 17.0512 46.5408 17.6779 47.3088 17.6779C48.0768 17.6779 48.704 17.0512 48.704 16.2837V1.52336ZM56.3584 6.76751C56.3584 6.00007 55.7312 5.37333 54.9504 5.37333C54.1824 5.37333 53.5552 6.00007 53.5552 6.76751V13.5082C53.5552 14.2756 54.1824 14.9023 54.9504 14.9023C55.7312 14.9023 56.3584 14.2756 56.3584 13.5082V6.76751ZM64 10.5919C64 9.82447 63.3728 9.21052 62.6048 9.21052C61.8368 9.21052 61.2096 9.83726 61.2096 10.5919V13.5082C61.2096 14.2756 61.8368 14.9023 62.6048 14.9023C63.3728 14.9023 64 14.2756 64 13.5082V10.5919Z" fill="#00BCEB"/>
</svg>
